<svg width="800" height="400" xmlns="http://www.w3.org/2000/svg">
  <defs>
    <linearGradient id="coralGradient" x1="0%" y1="0%" x2="0%" y2="100%">
      <stop offset="0%" style="stop-color:#40E0D0;stop-opacity:1" />
      <stop offset="50%" style="stop-color:#20B2AA;stop-opacity:1" />
      <stop offset="100%" style="stop-color:#008B8B;stop-opacity:1" />
    </linearGradient>
  </defs>
  
  <!-- Coral reef background -->
  <rect width="800" height="400" fill="url(#coralGradient)"/>
  
  <!-- Coral formations -->
  <circle cx="150" cy="300" r="40" fill="#FF7F50" opacity="0.8"/>
  <circle cx="180" cy="280" r="30" fill="#FF6347" opacity="0.8"/>
  <circle cx="120" cy="320" r="25" fill="#FFA500" opacity="0.8"/>
  
  <circle cx="400" cy="320" r="50" fill="#FF69B4" opacity="0.8"/>
  <circle cx="430" cy="290" r="35" fill="#FF1493" opacity="0.8"/>
  <circle cx="370" cy="340" r="30" fill="#DC143C" opacity="0.8"/>
  
  <circle cx="650" cy="310" r="45" fill="#8A2BE2" opacity="0.8"/>
  <circle cx="680" cy="280" r="32" fill="#9370DB" opacity="0.8"/>
  <circle cx="620" cy="330" r="28" fill="#BA55D3" opacity="0.8"/>
  
  <!-- Sea turtles -->
  <ellipse cx="300" cy="150" rx="25" ry="15" fill="#228B22" opacity="0.9"/>
  <circle cx="310" cy="145" r="8" fill="#228B22" opacity="0.9"/>
  <circle cx="290" cy="145" r="8" fill="#228B22" opacity="0.9"/>
  <circle cx="315" cy="155" r="6" fill="#228B22" opacity="0.9"/>
  <circle cx="285" cy="155" r="6" fill="#228B22" opacity="0.9"/>
  
  <!-- Tropical fish -->
  <path d="M500,180 Q520,170 540,180 Q520,190 500,180" fill="#FFD700"/>
  <path d="M520,200 Q540,190 560,200 Q540,210 520,200" fill="#FF69B4"/>
  <path d="M480,220 Q500,210 520,220 Q500,230 480,220" fill="#00BFFF"/>
  
  <!-- Text overlay -->
  <rect x="50" y="320" width="700" height="60" fill="rgba(0,0,0,0.8)" rx="10"/>
  <text x="400" y="345" text-anchor="middle" fill="white" font-family="Arial" font-size="24" font-weight="bold">
    🪸 Coral Reef Restoration #3
  </text>
  <text x="400" y="365" text-anchor="middle" fill="white" font-family="Arial" font-size="16">
    Habitat Protection - Great Barrier Reef
  </text>
</svg>
