<svg width="800" height="400" xmlns="http://www.w3.org/2000/svg">
  <defs>
    <linearGradient id="deepOceanGradient" x1="0%" y1="0%" x2="0%" y2="100%">
      <stop offset="0%" style="stop-color:#4169E1;stop-opacity:1" />
      <stop offset="50%" style="stop-color:#0047AB;stop-opacity:1" />
      <stop offset="100%" style="stop-color:#002F6C;stop-opacity:1" />
    </linearGradient>
  </defs>
  
  <!-- Deep ocean background -->
  <rect width="800" height="400" fill="url(#deepOceanGradient)"/>
  
  <!-- Marine life -->
  <circle cx="100" cy="100" r="15" fill="#32CD32" opacity="0.8"/>
  <circle cx="200" cy="150" r="20" fill="#FF69B4" opacity="0.8"/>
  <circle cx="300" cy="120" r="18" fill="#FFD700" opacity="0.8"/>
  <circle cx="500" cy="180" r="25" fill="#FF6347" opacity="0.8"/>
  <circle cx="650" cy="140" r="22" fill="#8A2BE2" opacity="0.8"/>
  
  <!-- Fish -->
  <path d="M120,250 Q140,240 160,250 Q140,260 120,250" fill="#FFA500"/>
  <path d="M350,280 Q370,270 390,280 Q370,290 350,280" fill="#FF69B4"/>
  <path d="M580,300 Q600,290 620,300 Q600,310 580,300" fill="#32CD32"/>
  
  <!-- Deep sea cleanup nets -->
  <path d="M400,200 L500,200 L500,300 L400,300 Z" fill="none" stroke="#FFFFFF" stroke-width="2" opacity="0.6"/>
  <path d="M410,210 L490,210 M410,220 L490,220 M410,230 L490,230 M410,240 L490,240" stroke="#FFFFFF" stroke-width="1" opacity="0.6"/>
  
  <!-- Text overlay -->
  <rect x="50" y="320" width="700" height="60" fill="rgba(0,0,0,0.8)" rx="10"/>
  <text x="400" y="345" text-anchor="middle" fill="white" font-family="Arial" font-size="24" font-weight="bold">
    🐠 Marine Life Protection #2
  </text>
  <text x="400" y="365" text-anchor="middle" fill="white" font-family="Arial" font-size="16">
    Deep Sea Conservation - Pacific Ocean
  </text>
</svg>
