<svg width="800" height="400" xmlns="http://www.w3.org/2000/svg">
  <defs>
    <linearGradient id="arcticGradient" x1="0%" y1="0%" x2="0%" y2="100%">
      <stop offset="0%" style="stop-color:#E0F6FF;stop-opacity:1" />
      <stop offset="50%" style="stop-color:#87CEEB;stop-opacity:1" />
      <stop offset="100%" style="stop-color:#4682B4;stop-opacity:1" />
    </linearGradient>
  </defs>
  
  <!-- Arctic ocean background -->
  <rect width="800" height="400" fill="url(#arcticGradient)"/>
  
  <!-- Ice floes -->
  <ellipse cx="150" cy="150" rx="60" ry="40" fill="#F0F8FF" opacity="0.9"/>
  <ellipse cx="400" cy="180" rx="80" ry="50" fill="#F0F8FF" opacity="0.9"/>
  <ellipse cx="650" cy="160" rx="70" ry="45" fill="#F0F8FF" opacity="0.9"/>
  
  <!-- Polar bears -->
  <circle cx="150" cy="140" r="12" fill="#FFFAF0"/>
  <circle cx="140" cy="135" r="4" fill="#FFFAF0"/>
  <circle cx="160" cy="135" r="4" fill="#FFFAF0"/>
  <circle cx="135" cy="150" r="3" fill="#FFFAF0"/>
  <circle cx="165" cy="150" r="3" fill="#FFFAF0"/>
  
  <!-- Penguins -->
  <ellipse cx="420" cy="170" rx="8" ry="15" fill="#000000"/>
  <ellipse cx="420" cy="165" rx="5" ry="10" fill="#FFFFFF"/>
  <circle cx="420" cy="155" r="5" fill="#000000"/>
  <circle cx="418" cy="153" r="1" fill="#FFFFFF"/>
  <circle cx="422" cy="153" r="1" fill="#FFFFFF"/>
  
  <ellipse cx="440" cy="175" rx="8" ry="15" fill="#000000"/>
  <ellipse cx="440" cy="170" rx="5" ry="10" fill="#FFFFFF"/>
  <circle cx="440" cy="160" r="5" fill="#000000"/>
  <circle cx="438" cy="158" r="1" fill="#FFFFFF"/>
  <circle cx="442" cy="158" r="1" fill="#FFFFFF"/>
  
  <!-- Research vessel -->
  <rect x="500" y="280" width="100" height="40" fill="#FF6B35" rx="20"/>
  <rect x="520" y="270" width="60" height="20" fill="#FFFFFF"/>
  <rect x="540" y="260" width="20" height="10" fill="#000000"/>
  
  <!-- Research equipment -->
  <circle cx="300" cy="300" r="20" fill="#FFD700" opacity="0.8"/>
  <rect x="295" y="285" width="10" height="30" fill="#FFD700" opacity="0.8"/>
  
  <!-- Text overlay -->
  <rect x="50" y="320" width="700" height="60" fill="rgba(0,0,0,0.8)" rx="10"/>
  <text x="400" y="345" text-anchor="middle" fill="white" font-family="Arial" font-size="24" font-weight="bold">
    🐧 Arctic Protection #5
  </text>
  <text x="400" y="365" text-anchor="middle" fill="white" font-family="Arial" font-size="16">
    Polar Ecosystem Conservation - Arctic Ocean
  </text>
</svg>
